<svg width="417" height="417" viewBox="0 0 417 417" fill="none" xmlns="http://www.w3.org/2000/svg">
<path d="M417 208.5C417 323.651 323.651 417 208.5 417C93.3486 417 0 323.651 0 208.5C0 93.3486 93.3486 0 208.5 0C323.651 0 417 93.3486 417 208.5ZM138.995 208.5C138.995 246.887 170.113 278.005 208.5 278.005C246.887 278.005 278.005 246.887 278.005 208.5C278.005 170.113 246.887 138.995 208.5 138.995C170.113 138.995 138.995 170.113 138.995 208.5Z" fill="#363636"/>
<path d="M54.8558 67.5543C33.8978 90.4004 18.2985 117.633 9.19372 147.269C0.0889321 176.905 -2.29218 208.198 2.22376 238.87L139.727 218.625C138.222 208.399 139.016 197.966 142.051 188.086C145.087 178.205 150.288 169.126 157.275 161.509L54.8558 67.5543Z" fill="#4F4F4F"/>
<path d="M362.149 349.441C383.106 326.594 398.704 299.361 407.808 269.725C416.912 240.089 419.292 208.795 414.775 178.123L277.272 198.372C278.778 208.599 277.985 219.032 274.949 228.912C271.914 238.793 266.714 247.873 259.726 255.49L362.149 349.441Z" fill="#4F4F4F"/>
<path d="M37.7068 88.9093C12.3824 125.076 -0.807252 168.349 0.0382322 212.493L139.007 209.831C138.726 195.115 143.122 180.69 151.565 168.633L37.7068 88.9093Z" fill="#6E6E6E"/>
<path d="M379.293 328.091C404.618 291.924 417.807 248.651 416.962 204.507L278.001 207.169C278.283 221.886 273.886 236.313 265.442 248.372L379.293 328.091Z" fill="#6E6E6E"/>
</svg>
