<svg width="345" height="314" viewBox="0 0 345 314" fill="none" xmlns="http://www.w3.org/2000/svg">
<path d="M309 184.558C295.475 163.114 284.26 158.69 259 162.058V303.558C285.891 305.911 295.706 298.573 309 278.558V184.558Z" fill="#FF6B00"/>
<path d="M85.5 162.058C60.2402 158.69 49.0249 163.114 35.5 184.558V278.558C48.7938 298.573 58.6085 305.911 85.5 303.558V162.058Z" fill="#FF6B00"/>
<path d="M315 156.558H328.5H334.5C327.365 -38.645 17.1137 -39.0602 10 156.558H16H29.5H37C38.4955 -3.46404 305.901 -4.57776 307.5 156.558H315Z" fill="#FF6B00"/>
<path d="M328.873 199.558L328.5 156.558H315L314.5 187.192C321.264 190.804 325.226 194.582 328.873 199.558Z" fill="#FF6B00"/>
<path d="M16 156.558L15.6267 199.558C19.2742 194.582 23.2359 190.804 30 187.192L29.5 156.558H16Z" fill="#FF6B00"/>
<path d="M309 184.558V278.558C322.365 274.299 326.759 270.859 333.5 258.558V206.558C331.89 203.961 330.409 201.653 328.873 199.558C325.226 194.582 321.264 190.804 314.5 187.192C312.846 186.309 311.025 185.436 309 184.558Z" fill="#FF6B00"/>
<path d="M35.5 278.558V184.558C33.4749 185.436 31.6537 186.309 30 187.192C23.2359 190.804 19.2742 194.582 15.6267 199.558C14.0907 201.653 12.6104 203.961 11 206.558V258.558C17.7411 270.859 22.1347 274.299 35.5 278.558Z" fill="#FF6B00"/>
<path d="M309 184.558C295.475 163.114 284.26 158.69 259 162.058V303.558C285.891 305.911 295.706 298.573 309 278.558M309 184.558V278.558M309 184.558C311.025 185.436 312.846 186.309 314.5 187.192M309 278.558C322.365 274.299 326.759 270.859 333.5 258.558V206.558C331.89 203.961 330.409 201.653 328.873 199.558M328.873 199.558L328.5 156.558M328.873 199.558C325.226 194.582 321.264 190.804 314.5 187.192M328.5 156.558H315M37 156.558H10C17.1137 -39.0602 327.365 -38.645 334.5 156.558H328.5M315 156.558L314.5 187.192M315 156.558H307.5M29.5 156.558H37C38.4955 -3.46404 305.901 -4.57776 307.5 156.558H334.5M35.5 184.558C49.0249 163.114 60.2402 158.69 85.5 162.058V303.558C58.6085 305.911 48.7938 298.573 35.5 278.558M35.5 184.558V278.558M35.5 184.558C33.4749 185.436 31.6537 186.309 30 187.192M35.5 278.558C22.1347 274.299 17.7411 270.859 11 258.558V206.558C12.6104 203.961 14.0907 201.653 15.6267 199.558M15.6267 199.558L16 156.558M15.6267 199.558C19.2742 194.582 23.2359 190.804 30 187.192M16 156.558H29.5M16 156.558H10M29.5 156.558L30 187.192M128 235.555H162L173 211.055L182 253.055L190 235.555H225" stroke="#FF6B00" stroke-width="4"/>
</svg>
